<?xml version="1.0" encoding="UTF-8"?>
<!DOCTYPE svg  PUBLIC '-//W3C//DTD SVG 1.1//EN'  'http://www.w3.org/Graphics/SVG/1.1/DTD/svg11.dtd'>
<svg enable-background="new 0 0 792 612" version="1.1" viewBox="0 0 792 612" xmlns="http://www.w3.org/2000/svg">
 <path d="m750.42 74.422c-0.541 1.665-1.742 2.933-2.91 4.167-1.025 1.081-2.084 2.205-2.437 3.373-0.254 0.86-0.088 2.051 0.1 3.307 1.29 8.687-6.261 10.947-9.184 17.836-3.307 7.783 1.069 16.646-0.838 24.727-0.992 4.211-4.432 6.162-6.47 9.635-2.229 3.814-2.084 6.493-3.352 10.484-3.076 9.723-9.16 18.222-11.84 28.199-1.73 6.471-0.86 12.6-1.919 18.95-2.039 12.203-13.625 20.702-14.672 33.214-0.793 9.458-3.308 21.585-9.933 28.772-3.362 3.649-6.879 5.258-11.74 7.077-8.996 3.352-15.798 10.087-24.903 12.92-8.852 2.745-18.454 2.558-27.494 0.838-8.289-1.587-13.383 2.624-20.184 6.36-7.827 4.311-14.65 2.227-23.129 4.354-12.853 3.23-16.292 23.415-2.942 29.225 4.729 2.061 12.953-1.258 18.058-1.356 12.688-0.242 20.249-0.012 29.224 9.756 8.113 8.885 9.139 18.927 5.026 29.984-2.402 6.471-14.837 12.071-10.373 19.743 5.171 8.897 12.71 14.828 15.113 25.355 1.445 6.284 3.683 13.031 2.392 19.523-1.487 7.44-6.768 9.095-11.188 14.31-2.402 2.844-3.021 5.016-3.439 8.653-0.859 7.463 2.184 15.312 3.55 22.356 1.356 6.988 1.444 15.598-3.683 21.616-5.742 6.726-14.264 7.662-8.587 17.706 5.335 9.458 14.606 15.861 21.816 23.756 4.167 4.542 8.886 7.088 13.715 10.836 3.769 2.933 10.537 7.938 4.629 11.762-7.066 4.554-16.459-10.098-21.75-13.999-9.768-7.167-20.735-12.931-31.23-18.905l-0.211-0.123-0.187-0.143c-4.585-3.505-14.23-4.961-18.982-1.852-18.267 11.971-31.252 14.815-36.731 15.841-3.584 0.683-5.005 1.896-5.248 2.448 0 0-2.426 5.412-3.273 7.308 0.397 1.024 2.183 5.711 2.183 5.711l-3.627 1.047c-1.729 0.484-4.354 0.892-7.033 0.011-3.495-1.168-6.096-4.045-7.728-8.576l-0.021-0.032c0-0.013-0.012-0.034-0.012-0.056-0.045-0.067-0.055-0.088-0.055-0.088-1.875-3.429-2.866-8.114-2.866-13.604 0-13.151 11.354-36.322-0.496-47.38-7.573-7.043-22.797-5.997-32.256-5.92-15.5 0.132-16.437-12.766-16.437-25.344 0.011-4.695 1.467-13.097-1.092-16.68-3.692-5.191-12.512-3.626-17.352-7.705-8.102-6.823-6.911-21.694-8.863-31.341-2.987-14.826-4.894-19.104-16.479-28.396-8.919-7.155-2.348-17.418-3.616-26.624-0.507-3.647-8.246-14.198-12.844-10.812-3.174 2.324 0.895 16.458 1.246 19.71 1.665 15.213 4.477 33.92-4.178 47.645 0 0-1.189 2.04-1.202 2.04-2.446 4.277-6.118 10.691-11.387 10.648-5.28 0.043-8.952-6.371-11.399-10.648-0.011 0-1.202-2.04-1.202-2.04-8.653-13.725-5.842-32.432-4.178-47.645 0.364-3.252 4.42-17.386 1.246-19.71-4.597-3.386-12.335 7.165-12.843 10.812-1.268 9.206 5.303 19.469-3.615 26.624-11.575 9.293-13.493 13.57-16.481 28.396-1.939 9.646-0.749 24.518-8.863 31.341-4.838 4.079-13.647 2.514-17.351 7.705-2.558 3.583-1.092 11.984-1.092 16.68 0.011 12.578-0.937 25.476-16.436 25.344-9.448-0.077-24.683-1.123-32.245 5.92-11.862 11.058-0.507 34.229-0.507 47.38 0 5.49-0.993 10.176-2.866 13.604 0 0-0.011 0.021-0.056 0.088 0 0.021-0.011 0.043-0.011 0.056l-0.021 0.032c-1.632 4.531-4.233 7.408-7.729 8.576-2.678 0.881-5.302 0.474-7.033-0.011l-3.626-1.047s1.786-4.687 2.183-5.711c-0.849-1.896-3.274-7.308-3.274-7.308-0.243-0.552-1.665-1.766-5.248-2.448-5.479-1.025-18.465-3.87-36.731-15.841-4.751-3.109-14.397-1.653-18.983 1.852l-0.188 0.143-0.209 0.123c-10.494 5.975-21.463 11.738-31.219 18.905-5.303 3.901-14.695 18.553-21.75 13.999-5.919-3.824 0.849-8.829 4.63-11.762 4.828-3.748 9.535-6.294 13.703-10.836 7.21-7.895 16.48-14.298 21.827-23.756 5.666-10.044-2.855-10.98-8.587-17.706-5.137-6.019-5.048-14.628-3.693-21.616 1.367-7.045 4.41-14.894 3.55-22.356-0.419-3.638-1.037-5.81-3.439-8.653-4.42-5.215-9.701-6.869-11.178-14.31-1.301-6.492 0.937-13.239 2.381-19.523 2.415-10.527 9.943-16.458 15.114-25.355 4.476-7.672-7.971-13.272-10.373-19.743-4.101-11.058-3.087-21.1 5.026-29.984 8.985-9.768 16.547-9.998 29.225-9.756 5.104 0.099 13.327 3.417 18.057 1.356 13.35-5.811 9.91-25.995-2.932-29.225-8.488-2.127-15.312-0.044-23.139-4.354-6.802-3.737-11.895-7.948-20.185-6.36-9.039 1.72-18.641 1.907-27.493-0.838-9.105-2.833-15.896-9.569-24.902-12.92-4.861-1.818-8.378-3.428-11.741-7.077-6.625-7.188-9.138-19.314-9.933-28.772-1.036-12.512-12.622-21.011-14.672-33.214-1.059-6.35-0.188-12.479-1.918-18.95-2.667-9.977-8.764-18.476-11.84-28.199-1.257-3.991-1.125-6.67-3.351-10.484-2.028-3.473-5.479-5.424-6.471-9.635-1.908-8.081 2.48-16.944-0.838-24.727-2.921-6.89-10.472-9.149-9.183-17.836 0.188-1.256 0.353-2.447 0.1-3.307-0.353-1.168-1.411-2.292-2.436-3.373-1.168-1.235-2.371-2.502-2.91-4.167-3.385-10.527 0.088-16.182 3.593-19.082 12.247-10.131 35.31-4.905 49.232-2.469 10.914 1.918 21.607 5.192 32.697 5.766 11.894 0.606 23.701-0.992 35.595-0.827 8.808 0.133 17.054 3.572 25.135 6.703 8.444 3.274 15.819 5.622 22.963 10.936 9.436 7.022 19.633 13.449 29.929 19.137 7.121 3.947 9.679 6.758 15.345 12.138 7.32 6.934 15.863 12.479 23.095 19.589 15.819 15.543 36.543 28.32 47.358 48.284 4.211 7.76 4.001 16.304 7.331 24.351 4.311 10.429 12.259 18.267 20.207 26.006 5.423 5.28 11.376 7.22 16.789 11.994 1.488 1.312 2.889 2.723 4.311 4.101 1.841 1.797 3.726 3.583 5.875 5.027 0.992 0.672 2.062 1.246 3.021 1.973 1.797 1.355 3.45 2.612 5.071 4.123 0.815 0.761 2.502 2.469 3.858 2.007 2.127-0.728 0.154-4.333-0.475-5.656-1.036-2.183-1.72-5.401-0.639-7.86 0.937-2.128 2.282-3.649 3.858-4.641-0.938-26.943-18.013-48.626-39.19-49.707-0.519 1.058-1.676 1.809-3.031 1.809-1.83 0-3.318-1.356-3.318-3.032s1.488-3.032 3.318-3.032c0.496 0 0.959 0.099 1.378 0.276v-0.044c23.745 0 43.225 23.172 44.746 52.363 0.43-0.077 0.86-0.11 1.279-0.122 0.408 0.011 0.849 0.045 1.268 0.122 1.521-29.191 21.011-52.363 44.745-52.363v0.044c0.431-0.177 0.895-0.276 1.379-0.276 1.84 0 3.317 1.356 3.317 3.032 0 1.675-1.478 3.032-3.317 3.032-1.355 0-2.514-0.75-3.032-1.809-21.177 1.081-38.253 22.764-39.189 49.707 1.576 0.992 2.923 2.513 3.869 4.641 1.081 2.458 0.387 5.677-0.649 7.86-0.629 1.323-2.603 4.928-0.463 5.656 1.344 0.462 3.031-1.246 3.847-2.007 1.62-1.51 3.274-2.767 5.07-4.123 0.959-0.728 2.028-1.301 3.032-1.973 2.139-1.445 4.023-3.23 5.876-5.027 1.421-1.378 2.811-2.789 4.3-4.101 5.423-4.773 11.375-6.713 16.788-11.994 7.948-7.739 15.896-15.577 20.206-26.006 3.331-8.047 3.131-16.591 7.332-24.351 10.813-19.964 31.55-32.741 47.358-48.284 7.231-7.111 15.774-12.655 23.096-19.589 5.676-5.38 8.223-8.191 15.344-12.138 10.296-5.688 20.505-12.115 29.93-19.137 7.154-5.313 14.518-7.662 22.963-10.936 8.08-3.131 16.326-6.57 25.134-6.703 11.895-0.165 23.701 1.433 35.596 0.827 11.091-0.573 21.784-3.848 32.696-5.766 13.923-2.436 36.985-7.662 49.232 2.469 3.501 2.9 6.974 8.555 3.59 19.082z"/>
 <path d="m579.26 414.45c13.735 12.271 33.171 7.695 43.754 2.008-12.512-53.015-60.4-38.793-70.091-39.421-9.688-0.64-15.928-6.571-12.831-10.528 5.082-6.493 36.964 7.993 55.727 4.376 7.914-1.521 24.054-17.362 27.195-29.015-30.978-24.064-55.781-11.783-82.987-0.749-11.067 4.498-10.848 4.145-20.802 3.12-9.966-1.025-7.784-11.354-0.231-10.385 34.746 4.42 37.668-9.415 37.668-9.415 7.143-4.828 3.903-24.329 1.654-29.202-2.978 0.121-26.436-2.789-26.436-2.789-19.159-1.069-24.274 2.667-29.181 8.863-3.439 4.333-4.311 8.754-3.771 14.904 1.169 13.493-9.227 12.259-8.322 14.012 0.916 1.763 8.412 0.242 14.485-7.32 11.949-14.883 31.87-16.293 33.81-14.319 4.3 4.365-9.104 17.461-30.547 21.518-15.113 2.867-7.121 11.752 0.551 16.746 7.662 5.005 22.742 7.904 41.803 2.811 19.071-5.082 36.765 2.48 38.187 7.144 1.577 5.191-28.099 7.419-37.117 4.619-27.02-8.39-31.176-0.232-27.185 4.3 22.301 25.288 41.857 22.422 52.562 25.399 10.704 2.964 23.746 18.101 21.838 19.786-1.896 1.688-15.809-4.829-15.809-4.829-6.658-2.678-33.556-25.1-37.37-13.845-3.803 11.244 15.721 29.247 22.754 35.198 7.032 5.953 26.059 21.057 21.584 24.021-4.476 2.966-19.489-15.511-22.4-18.465-2.921-2.965-8.521-6.747-7.154-0.948 10.307 43.919-1.455 55.351-2.789 54.546-1.346-0.805 12.61-15.644-8.423-70.606-19.324-50.534-62.836-79.317-74.521-86.725-5.325-3.396-9.448 1.862-5.964 3.483 1.367 0.65 5.016 3.593 0.65 5.985-4.376 2.393-14.463-8.443-25.443-6.229-24.362 4.917-14.209 23.669-10.945 30.867 2.535-1.468 0 0 19.907 7.628 19.899 7.628 35.973-1.951 38.871-8.225 2.889-6.271 6.725-7.132 11.718-3.735 4.982 3.395 2.69 8.532-1.873 12.06-5.534 4.299-30.294 3.648-42.674 13.911-12.357 10.253 2.612 35.255 2.612 35.255-0.43-10.395 45.44 5.865 52.794-25.564 2.271-9.744 6.372-12.522 10.053-12.049 6.581 0.86 8.367 18.101 1.775 23.701-7.441 6.317-31.087 9.392-36.081 18.498-4.982 9.095-1.521 18.619 0.859 28.673 21.806-1.93 37.879 8.863 48.648-24.131 1.334-4.078 9.711-3.792 9.271 6.194-0.806 18.246-19.976 26.038-17.484 44.747 1.687 12.754-3.891 33.347-0.508 39.013 6.264 0.354 43.479-14.144 49.563-25.63 8.842-16.689-14.352-40.755-10.659-48.164 0.849-1.697 4.2-4.509 11.388 11.454 10.428 23.106 26.964 20.494 26.964 20.494 10.064-32.433-22.268-41.527-38.12-56.751s-4.652-18.574 9.073-6.295zm-117.91-56.507c-3.164-1.125-8.952-11.189 3.615-8.939 12.577 2.248 16.228-5.358 20.405-4.289s-5.292 19.865-24.02 13.228zm38.428 38.099c-8.411 4.299-13.637-1.643-10.076-8.521 4.321-8.356 20.493-6.009 24.032-18.807 1.091-3.936 3.263 18.541-13.956 27.328zm21.86 38.076c-4.376 3.692-12.423 0.827-8.676-6.196 3.76-7.011 17.418-8.3 22.104-19.622 2.524-6.085 5.335 9.954-13.428 25.818z" fill="#fff"/>
 <path d="m397.31 294.34c12.994-4.673 39.898-18.039 48.451-35.159 8.767-17.556-5.894-5.709-9.952-0.737-7.122 8.725-14.823 22.538-36.239 30.583-4.721 1.774 6.068-4.928 5.808-14.339-0.15-5.432-4.139-7.682-3.73-9.695 0.448-2.242 14.692-21.675 41.446-26.032 13.947-2.278 17.019-3.476 18.254-4.283 1.229-0.799 12.964 10.696-12.987 42.592-3.706 4.553-7.873 8.218-12.206 11.146 1.005 0.014 2.041 0.044 3.141 0.116 24.144 1.574 38.885 17.22 40.337 25.474-14.997-0.552-19.832 9.254-43.94 11.07-15.08 1.132-35.43-8.672-31.164-15.257 4.27-6.585 19.276-6.026 29.452-4.945 8.39 0.897 30.96 4.793 24.926-0.661-3.86-3.49-9.039-5.146-14.09-5.953-5.976-0.954-12.064-0.67-18.081-0.553-5.091 0.1-10.177 0.365-15.269 0.456-2.009 0.036-3.87 0.535-5.859 0.55-2.518 0.019-5.056 0.184-7.547-0.281-0.931-0.174-3.385-0.542-3.608-1.785-0.232-1.273 2.01-2.003 2.857-2.307z" fill="#fff"/>
 <path d="m475.25 192.33c14.354 9.977 35.178-4.223 63.277-12.732 29.885-9.05 49.75-4.41 45.826-7.441-20.967-16.26-60.455 3.571-56.74-13.394 2.889-13.218 27.726-7.254 29.577-9.591 2.116-2.679-4.53-8.246-0.166-12.181 3.738-3.374 26.767 1.896 32.764 19.137 7.507 21.607 0.058-44.095-38.616-44.657-35.092 9.635-47.7 34.582-72.868 57.07 0.21 0.066 0.431 0.111 0.639 0.155-1.411 1.509-17.164 14.253-3.693 23.634z" fill="#fff"/>
 <path d="m568.66 100.34c3.825 6.405 11.364 8.863 14.198 12.457 15.356 19.446 12.324 35.75 15.686 30.657 1.83-2.745 0.851-13.846-0.837-33.214-1.644-18.763 6.184-22.147 12.236-22.875 6.096-0.728 11.123 25.223 0.673 42.386-14.453 23.734 40.313-27.008 33.083-55.935-0.872-3.506-2.062-6.218-3.562-8.158-17.397-10.141-74.17 22.379-71.477 34.682z" fill="#fff"/>
 <path d="m610.69 186.71c15.884 20.351 4.871 35.762 8.708 60.025 5.225 33.017 28.396 16.304 34.042 11.586 10.911 8.576 25.883-3.914 27.019-4.807 12.692-18.449 5.203-41.461 5.203-41.461 26.876-13.008 18.421-37.613-3.747-39.84-9.757-0.97-39.973 0.518-32.223-6.923 7.572-7.265 26.489-0.044 36.103 3.936 3.817 1.58 7.833 2.779 11.955 3.199 1.91 0.194 3.77 0.341 5.578-0.357 1.557-0.601 3.103-1.525 3.206-3.283 0.116-2.025 1.185-4.264 1.8-6.196 1.297-4.073 2.654-8.148 4.354-12.074 0.204-0.472 0.417-0.941 0.633-1.408 0.275-0.595 1.666-3.252 2.635-3.605 0.485-0.529 0.992-1.058 1.489-1.587 1.687-1.764 3.284-3.428 4.21-5.291 0.981-1.973 1.479-4.045 1.964-6.053 0.474-1.973 0.969-4.013 1.929-5.853 0.188-0.364 0.396-0.706 0.628-1.037 7.716-35.309-72.217-8.962-93.791 31.297-3.836 7.166 15.82-9.558 23.491-13.747 7.553-4.123 24.439-9.238 25.51-3.429 1.862 10.109-17.836 15.411-25.674 18.002-16.372 5.424-29.93 8.025-23.327 15.301 6.626 7.298 30.725-1.521 24.749 15.852-3.858 11.211-16.668 3.638-16.128 6.041 0.552 2.403 8.302 13.052 3.417 20.957-4.983 8.058-14.1 6.56-18.212-15.113-3.22-16.898-22.555-23.137-15.521-14.132z" fill="#fff"/>
 <path d="m597.05 188.79c2.244 11.432 0.525 34.579-14.271 40.984-15.208 6.579-8.827-14.673-8.728-19.126 0.112-4.317-12.478 29.668-31.899 29.453-17.912-0.206-0.016-22.629 19.118-35.424 6.837-4.569-19.715 8.104-18.353 0.927 1.156-6.028 14.095-14.135 40.425-22.523 11.835-3.769-31.732-4.387-58.046 6.227-27.638 11.14-51.781 40.947-35.515 47.05-18.736 28.276-11.086 45.955 4.132 49.27 18.743 4.087 40.14-8.191 49.56-14.079 0 0 13.458 20.984 41.833 5.603 23.467-12.723 27.534-56.14 26.81-63.349-2.126-21.214-16.805-33.835-15.066-25.013z" fill="#fff"/>
 <path d="m679.87 78.757c-0.538 1.65-2.005 2.948-3.681 3.472-0.107 2.279-0.392 4.646-0.802 6.483 3.799-1.952 7.494-3.67 10.924-5.161 1.407-1.974 2.394-4.721 2.98-7.001-0.068-0.015-0.14-0.017-0.208-0.039-2.276-0.668-3.237-3.022-2.151-5.249 1.093-2.219 3.792-3.458 6.045-2.789 2.244 0.663 3.211 2.988 2.147 5.201-0.749 1.568-2.306 2.645-3.964 2.929-0.37 1.904-0.872 3.857-1.417 5.492 7.726-3.198 13.591-5.139 15.04-5.939 4.377-2.427 6.917-10.735-3.25-11.668 4.281-7.5 15.29-4.667 14.267 2.773 5.846-6.452 14.69 1.551 6.21 8.012 10.112 0.617 3.623 11.046-2.532 10.207 0.227 7.722-9.986 8.094-10.451 4.334 4.648-2.432 2.636-10.545-7.052-9.317-3.814 0.478-8.96 2.727-14.294 5.678 1.693 0.573 3.713 1.464 5.602 2.481 1.253-1.224 3.044-1.862 4.688-1.507 2.343 0.502 3.505 2.805 2.606 5.131-0.909 2.354-3.562 3.871-5.933 3.375-2.373-0.5-3.537-2.832-2.603-5.187 0.028-0.069 0.072-0.135 0.104-0.201-2.285-1.049-5.291-2.037-7.795-1.904-0.161 7e-3 -0.312 9e-3 -0.452 7e-3 -3.46 2.088-6.879 4.362-9.966 6.564 1.581 0.572 3.361 1.363 5.043 2.263 1.304-1.255 3.154-1.931 4.844-1.576 2.398 0.5 3.562 2.852 2.604 5.253-0.963 2.418-3.719 3.993-6.151 3.5-2.432-0.5-3.599-2.88-2.606-5.309 0.031-0.071 0.074-0.14 0.111-0.204-1.944-0.888-4.395-1.711-6.647-1.886-1.307 0.977-2.517 1.908-3.593 2.778-8.719 7.02-28.301 28.328-42.783 61.454-7.447 17.036-17.652 14.731-20.365 14.749-2.73 0.019-6.969-4.724-0.692-17.861 5.741-12.026 19.865-36.322 56.164-60.208 0.804-2.325 0.859-5.261 0.645-7.618-0.077 6e-3 -0.157 0.029-0.233 0.036-2.658 0.167-4.542-1.689-4.206-4.136 0.34-2.434 2.762-4.517 5.391-4.663 2.62-0.146 4.484 1.681 4.176 4.096-0.224 1.703-1.483 3.238-3.124 4.065 0.336 2.137 0.519 4.365 0.491 6.19 1.121-0.706 2.255-1.419 3.413-2.123 1.76-1.076 3.533-2.087 5.301-3.057 0.046-0.084 0.082-0.152 0.139-0.236 1.399-2.207 2.099-5.414 2.379-7.98-0.084-9e-3 -0.153 5e-3 -0.228-7e-3 -2.477-0.319-3.85-2.501-3.055-4.857 0.783-2.354 3.411-3.988 5.861-3.658 2.443 0.322 3.815 2.473 3.059 4.818z" fill="#fff"/>
 <path d="m338.09 332.5c-10.979-2.215-21.066 8.621-25.432 6.229-4.376-2.393-0.728-5.335 0.65-5.985 3.473-1.621-0.65-6.879-5.975-3.483-11.686 7.407-55.186 36.19-74.521 86.725-21.033 54.963-7.077 69.802-8.411 70.606-1.344 0.805-13.106-10.627-2.799-54.546 1.367-5.799-4.233-2.017-7.144 0.948-2.921 2.954-17.936 21.431-22.412 18.465-4.476-2.965 14.552-18.068 21.584-24.021 7.034-5.951 26.567-23.954 22.753-35.198-3.814-11.255-30.712 11.167-37.36 13.845 0 0-13.923 6.517-15.82 4.829-1.907-1.686 11.135-16.822 21.838-19.786 10.705-2.978 30.272-0.111 52.562-25.399 3.991-4.532-0.165-12.689-27.185-4.3-9.006 2.8-38.693 0.572-37.117-4.619 1.422-4.663 19.116-12.226 38.187-7.144 19.071 5.094 34.14 2.194 41.813-2.811 7.662-4.994 15.653-13.879 0.54-16.746-21.441-4.057-34.846-17.152-30.547-21.518 1.952-1.974 21.861-0.563 33.811 14.319 6.074 7.562 13.57 9.083 14.485 7.32 0.903-1.753-9.492-0.519-8.324-14.012 0.541-6.15-0.33-10.571-3.759-14.904-4.906-6.195-10.032-9.932-29.19-8.863 0 0-23.459 2.91-26.435 2.789-2.25 4.873-5.479 24.374 1.664 29.202 0 0 2.91 13.835 37.657 9.415 7.562-0.97 9.734 9.359-0.22 10.385-9.966 1.024-9.745 1.378-20.813-3.12-27.207-11.034-52.01-23.315-82.976 0.749 3.142 11.652 19.27 27.493 27.185 29.015 18.762 3.617 50.643-10.869 55.725-4.376 3.098 3.957-3.142 9.889-12.832 10.528-9.69 0.628-57.577-13.594-70.078 39.421 10.572 5.688 30.007 10.264 43.743-2.008 13.736-12.279 24.925-8.929 9.073 6.296-15.853 15.224-48.185 24.318-38.11 56.751 0 0 16.525 2.612 26.954-20.494 7.198-15.963 10.55-13.151 11.388-11.454 3.693 7.409-19.501 31.475-10.66 48.164 6.085 11.486 43.301 25.983 49.562 25.63 3.384-5.666-2.193-26.259-0.496-39.013 2.48-18.709-16.69-26.501-17.495-44.747-0.441-9.986 7.949-10.272 9.283-6.194 10.759 32.994 26.832 22.201 48.648 24.131 2.37-10.054 5.842-19.578 0.849-28.673-4.983-9.106-28.629-12.181-36.07-18.498-6.604-5.601-4.806-22.841 1.764-23.701 3.682-0.474 7.783 2.305 10.054 12.049 7.353 31.43 53.234 15.17 52.792 25.564 0 0 14.982-25.002 2.613-35.255-12.379-10.263-37.128-9.612-42.673-13.911-4.563-3.527-6.856-8.665-1.863-12.06 4.983-3.396 8.819-2.536 11.708 3.735 2.899 6.273 18.972 15.853 38.881 8.225 19.897-7.628 17.362-9.096 19.897-7.628 3.263-7.199 13.428-25.951-10.946-30.868zm-68.855 95.422c3.749 7.023-4.299 9.889-8.675 6.196-18.762-15.864-15.952-31.903-13.427-25.818 4.684 11.322 18.343 12.611 22.102 19.622zm23.272-40.402c3.561 6.879-1.676 12.82-10.087 8.521-17.219-8.787-15.047-31.264-13.956-27.328 3.539 12.799 19.722 10.451 24.043 18.807zm28.342-29.577c-18.729 6.637-28.199-12.159-24.021-13.229 4.178-1.069 7.838 6.537 20.405 4.289 12.578-2.249 6.78 7.815 3.616 8.94z" fill="#fff"/>
 <path d="m384.89 294.34c-12.994-4.673-39.899-18.039-48.451-35.159-8.768-17.556 5.893-5.709 9.951-0.737 7.123 8.725 14.824 22.538 36.239 30.583 4.722 1.774-6.067-4.928-5.807-14.339 0.15-5.432 4.138-7.682 3.73-9.695-0.448-2.242-14.691-21.675-41.446-26.032-13.948-2.278-17.019-3.476-18.254-4.283-1.229-0.799-12.963 10.696 12.988 42.592 3.706 4.553 7.873 8.218 12.206 11.146-1.005 0.014-2.041 0.044-3.141 0.116-24.143 1.574-38.885 17.22-40.336 25.474 14.996-0.552 19.832 9.254 43.939 11.07 15.081 1.132 35.431-8.672 31.165-15.257-4.27-6.585-19.275-6.026-29.452-4.945-8.39 0.897-30.96 4.793-24.926-0.661 3.86-3.49 9.039-5.146 14.09-5.953 5.976-0.954 12.064-0.67 18.081-0.553 5.091 0.1 10.177 0.365 15.269 0.456 2.009 0.036 3.87 0.535 5.86 0.55 2.517 0.019 5.055 0.184 7.546-0.281 0.931-0.174 3.385-0.542 3.609-1.785 0.229-1.273-2.014-2.003-2.86-2.307z" fill="#fff"/>
 <path d="m306.94 192.33c-14.352 9.977-35.177-4.223-63.277-12.732-29.884-9.05-49.75-4.41-45.826-7.441 20.968-16.26 60.456 3.571 56.741-13.394-2.889-13.218-27.726-7.254-29.577-9.591-2.116-2.679 4.53-8.246 0.166-12.181-3.738-3.374-26.766 1.896-32.764 19.137-7.506 21.607-0.057-44.095 38.617-44.657 35.091 9.635 47.701 34.582 72.868 57.07-0.21 0.066-0.431 0.111-0.64 0.155 1.41 1.509 17.163 14.253 3.692 23.634z" fill="#fff"/>
 <path d="m213.54 100.34c-3.825 6.405-11.365 8.863-14.198 12.457-15.356 19.446-12.324 35.75-15.687 30.657-1.83-2.745-0.849-13.846 0.838-33.214 1.643-18.763-6.184-22.147-12.236-22.875-6.096-0.728-11.123 25.223-0.672 42.386 14.452 23.734-40.315-27.008-33.083-55.935 0.872-3.506 2.062-6.218 3.561-8.158 17.397-10.141 74.169 22.379 71.477 34.682z" fill="#fff"/>
 <path d="m171.5 186.71c-15.884 20.351-4.873 35.762-8.708 60.025-5.226 33.017-28.397 16.304-34.042 11.586-10.911 8.576-25.883-3.914-27.019-4.807-12.691-18.449-5.203-41.461-5.203-41.461-26.875-13.008-18.42-37.613 3.748-39.84 9.757-0.97 39.973 0.518 32.223-6.923-7.573-7.265-26.489-0.044-36.103 3.936-3.817 1.58-7.833 2.779-11.955 3.199-1.91 0.194-3.77 0.341-5.579-0.357-1.557-0.601-3.103-1.525-3.206-3.283-0.116-2.025-1.185-4.264-1.799-6.196-1.297-4.073-2.654-8.148-4.354-12.074-0.204-0.472-0.417-0.941-0.633-1.408-0.275-0.595-1.665-3.252-2.634-3.605-0.485-0.529-0.992-1.058-1.488-1.587-1.687-1.764-3.285-3.428-4.21-5.291-0.982-1.973-1.478-4.045-1.964-6.053-0.474-1.973-0.969-4.013-1.929-5.853-0.188-0.364-0.396-0.706-0.627-1.037-7.717-35.309 72.216-8.962 93.791 31.297 3.836 7.166-15.82-9.558-23.491-13.747-7.552-4.123-24.439-9.238-25.51-3.429-1.862 10.109 17.836 15.411 25.674 18.002 16.371 5.424 29.929 8.025 23.327 15.301-6.626 7.298-30.724-1.521-24.749 15.852 3.858 11.211 16.668 3.638 16.128 6.041-0.552 2.403-8.302 13.052-3.417 20.957 4.984 8.058 14.1 6.56 18.212-15.113 3.216-16.898 22.55-23.137 15.517-14.132z" fill="#fff"/>
 <path d="m185.15 188.79c-2.243 11.432-0.525 34.579 14.272 40.984 15.208 6.579 8.828-14.673 8.728-19.126-0.112-4.317 12.477 29.668 31.899 29.453 17.913-0.206 0.016-22.629-19.117-35.424-6.837-4.569 19.714 8.104 18.352 0.927-1.156-6.028-14.094-14.135-40.424-22.523-11.835-3.769 31.732-4.387 58.045 6.227 27.638 11.14 51.782 40.947 35.515 47.05 18.736 28.276 11.085 45.955-4.132 49.27-18.742 4.087-40.139-8.191-49.559-14.079 0 0-13.458 20.984-41.832 5.603-23.467-12.723-27.535-56.14-26.811-63.349 2.124-21.214 16.804-33.835 15.064-25.013z" fill="#fff"/>
 <path d="m102.32 78.757c0.538 1.65 2.005 2.948 3.681 3.472 0.108 2.279 0.392 4.646 0.802 6.483-3.799-1.952-7.494-3.67-10.923-5.161-1.407-1.974-2.395-4.721-2.98-7.001 0.067-0.015 0.139-0.017 0.207-0.039 2.277-0.668 3.237-3.022 2.152-5.249-1.092-2.219-3.792-3.458-6.045-2.789-2.245 0.663-3.211 2.988-2.147 5.201 0.749 1.568 2.306 2.645 3.964 2.929 0.37 1.904 0.872 3.857 1.417 5.492-7.726-3.198-13.59-5.139-15.04-5.939-4.377-2.427-6.917-10.735 3.25-11.668-4.281-7.5-15.289-4.667-14.267 2.773-5.846-6.452-14.689 1.551-6.21 8.012-10.111 0.617-3.624 11.046 2.532 10.207-0.226 7.722 9.987 8.094 10.451 4.334-4.648-2.432-2.635-10.545 7.052-9.317 3.814 0.478 8.959 2.727 14.294 5.678-1.693 0.573-3.713 1.464-5.603 2.481-1.252-1.224-3.043-1.862-4.687-1.507-2.343 0.502-3.505 2.805-2.607 5.131 0.909 2.354 3.563 3.871 5.934 3.375 2.373-0.5 3.537-2.832 2.601-5.187-0.028-0.069-0.071-0.135-0.103-0.201 2.284-1.049 5.29-2.037 7.794-1.904 0.162 7e-3 0.312 9e-3 0.452 7e-3 3.461 2.088 6.879 4.362 9.967 6.564-1.582 0.572-3.362 1.363-5.043 2.263-1.305-1.255-3.154-1.931-4.844-1.576-2.398 0.5-3.562 2.852-2.604 5.253 0.962 2.418 3.719 3.993 6.152 3.5 2.431-0.5 3.598-2.88 2.605-5.309-0.032-0.071-0.074-0.14-0.111-0.204 1.944-0.888 4.395-1.711 6.648-1.886 1.307 0.977 2.517 1.908 3.593 2.778 8.718 7.02 28.3 28.328 42.783 61.454 7.446 17.036 17.652 14.731 20.365 14.749 2.73 0.019 6.969-4.724 0.692-17.861-5.741-12.026-19.865-36.322-56.164-60.208-0.803-2.325-0.859-5.261-0.645-7.618 0.078 6e-3 0.158 0.029 0.233 0.036 2.659 0.167 4.543-1.689 4.207-4.136-0.34-2.434-2.762-4.517-5.392-4.663-2.62-0.146-4.484 1.681-4.176 4.096 0.224 1.703 1.484 3.238 3.124 4.065-0.335 2.137-0.518 4.365-0.491 6.19-1.121-0.706-2.255-1.419-3.414-2.123-1.76-1.076-3.533-2.087-5.301-3.057-0.045-0.084-0.082-0.152-0.138-0.236-1.399-2.207-2.099-5.414-2.379-7.98 0.084-9e-3 0.153 5e-3 0.228-7e-3 2.476-0.319 3.85-2.501 3.055-4.857-0.783-2.354-3.412-3.988-5.862-3.658-2.442 0.322-3.814 2.473-3.059 4.818z" fill="#fff"/>
</svg>
